<?xml version="1.0" standalone="no"?>
<!DOCTYPE svg PUBLIC "-//W3C//DTD SVG 20010904//EN"
 "http://www.w3.org/TR/2001/REC-SVG-20010904/DTD/svg10.dtd">
<svg version="1.0" xmlns="http://www.w3.org/2000/svg"
 width="512.000000pt" height="512.000000pt" viewBox="0 0 512.000000 512.000000"
 preserveAspectRatio="xMidYMid meet">
<metadata>
Created by potrace 1.14, written by Peter Selinger 2001-2017
</metadata>
<g transform="translate(0.000000,512.000000) scale(0.100000,-0.100000)"
fill="#000000" stroke="none">
<path d="M3415 5096 c-249 -69 -459 -243 -599 -496 -44 -81 -49 -92 -94 -220
-30 -87 -62 -219 -62 -256 0 -13 16 -32 43 -51 74 -53 227 -214 227 -239 0 -4
6 -15 14 -23 25 -27 93 -172 119 -251 26 -80 52 -207 63 -303 6 -52 10 -59 43
-79 60 -38 134 -106 199 -184 23 -29 42 -55 42 -60 0 -4 7 -15 15 -24 8 -8 35
-57 60 -108 l46 -92 102 0 c219 0 412 81 587 246 124 118 150 180 110 272 -33
77 -45 81 -206 79 -122 -2 -147 1 -204 21 -230 79 -387 268 -469 562 -30 108
-30 352 0 460 34 124 67 196 133 300 30 47 161 180 177 180 14 0 56 71 64 107
9 47 -11 109 -51 148 l-35 35 -122 -1 c-93 0 -141 -6 -202 -23z"/>
<path d="M1210 4213 c-61 -10 -200 -70 -248 -106 -42 -32 -192 -189 -192 -201
0 -7 -6 -19 -14 -25 -24 -20 -90 -169 -122 -276 -9 -33 -22 -113 -28 -178
l-11 -118 -66 -22 c-36 -12 -92 -38 -124 -57 -63 -38 -219 -185 -235 -222 -6
-13 -26 -48 -45 -78 -19 -30 -34 -61 -35 -68 0 -7 -6 -23 -14 -35 -8 -12 -27
-65 -42 -117 -27 -91 -29 -104 -29 -300 0 -196 2 -209 29 -300 15 -52 34 -105
42 -117 8 -12 14 -27 14 -33 0 -6 15 -35 32 -66 18 -30 38 -65 45 -76 42 -76
200 -214 293 -256 131 -60 60 -57 1285 -57 1068 0 1123 1 1175 19 229 78 392
288 444 571 64 352 -81 712 -346 858 -25 14 -64 31 -85 37 l-39 12 1 141 c0
240 -49 393 -179 560 -149 189 -379 262 -594 188 -60 -20 -143 -67 -150 -83
-9 -19 -30 -4 -52 35 -97 175 -271 316 -446 361 -57 15 -201 20 -264 9z"/>
<path d="M480 1197 c-33 -15 -87 -72 -109 -117 -22 -42 -122 -235 -180 -345
-24 -44 -48 -86 -54 -94 -7 -8 -12 -52 -12 -110 0 -87 3 -100 27 -142 49 -80
143 -111 225 -73 40 20 72 59 117 146 18 35 52 98 75 141 22 42 59 112 82 154
22 43 44 82 49 88 4 5 14 38 21 73 16 78 0 171 -38 217 -56 67 -138 92 -203
62z"/>
<path d="M1184 1185 c-46 -27 -59 -45 -115 -152 -22 -40 -56 -106 -78 -145
-160 -301 -145 -263 -145 -365 -1 -87 1 -94 30 -135 45 -62 87 -88 145 -88 26
0 58 4 71 9 31 12 76 58 97 101 10 19 37 70 60 113 22 42 58 110 80 150 21 39
50 95 65 122 40 73 56 124 56 179 0 178 -138 288 -266 211z"/>
<path d="M1932 1199 c-33 -13 -73 -46 -88 -72 -18 -31 -45 -81 -93 -169 -196
-367 -184 -339 -183 -436 0 -74 3 -88 29 -130 40 -64 83 -92 145 -92 90 0 129
31 194 155 17 33 50 95 73 138 22 42 59 112 82 154 22 43 44 82 48 88 10 15
29 74 36 117 11 60 -26 168 -71 208 -57 49 -115 63 -172 39z"/>
<path d="M2644 1196 c-40 -18 -82 -69 -131 -164 -22 -42 -58 -111 -80 -152
-152 -285 -143 -262 -143 -352 0 -65 5 -92 21 -123 39 -74 84 -105 154 -105
59 0 105 21 136 63 30 40 22 26 168 300 21 39 51 95 66 122 64 118 78 201 47
286 -42 113 -143 166 -238 125z"/>
</g>
</svg>
