<?xml version="1.0" standalone="no"?>
<!DOCTYPE svg PUBLIC "-//W3C//DTD SVG 20010904//EN"
 "http://www.w3.org/TR/2001/REC-SVG-20010904/DTD/svg10.dtd">
<svg version="1.0" xmlns="http://www.w3.org/2000/svg"
 width="516.000000pt" height="516.000000pt" viewBox="0 0 516.000000 516.000000"
 preserveAspectRatio="xMidYMid meet">
<metadata>
Created by potrace 1.14, written by Peter Selinger 2001-2017
</metadata>
<g transform="translate(0.000000,516.000000) scale(0.100000,-0.100000)"
fill="#000000" stroke="none">
<path d="M1531 5128 c-56 -15 -137 -73 -168 -120 -55 -83 -57 -90 -61 -305
l-4 -203 -261 -1 c-144 0 -269 -2 -277 -4 -8 -1 -28 -5 -45 -8 -120 -20 -259
-128 -321 -248 -46 -91 -53 -150 -54 -436 l0 -263 2240 0 2241 0 -1 270 c-1
291 -7 335 -56 432 -36 71 -123 159 -193 197 -104 55 -147 61 -442 61 l-267 0
-4 203 c-3 190 -5 205 -28 252 -30 62 -97 128 -158 157 -71 32 -199 32 -267
-2 -64 -32 -124 -92 -155 -155 -23 -47 -25 -62 -28 -252 l-4 -203 -638 0 -638
0 -4 203 c-3 190 -5 205 -28 252 -31 63 -97 128 -158 156 -53 24 -166 33 -221
17z"/>
<path d="M340 1833 c0 -1227 2 -1393 16 -1447 45 -174 177 -306 351 -351 83
-22 3669 -21 3750 0 84 23 138 53 207 117 74 67 129 164 146 257 6 34 10 557
10 1432 l0 1379 -2240 0 -2240 0 0 -1387z m3201 649 c126 -47 187 -174 144
-301 -16 -49 -60 -96 -614 -650 -560 -561 -600 -599 -650 -616 -62 -20 -134
-16 -188 12 -47 25 -721 699 -746 747 -48 91 -19 221 64 288 71 57 135 69 223
44 52 -15 69 -31 312 -272 l257 -255 486 486 c267 267 495 492 507 499 53 37
136 44 205 18z"/>
</g>
</svg>
